<?xml version="1.0" standalone="no"?>
<!DOCTYPE svg PUBLIC "-//W3C//DTD SVG 1.1//EN" "http://www.w3.org/Graphics/SVG/1.1/DTD/svg11.dtd" >
<svg xmlns="http://www.w3.org/2000/svg" xmlns:xlink="http://www.w3.org/1999/xlink" version="1.1">
<metadata></metadata>
<defs>
<font id="mbf_innoregular" horiz-adv-x="1398" >
<font-face units-per-em="2048" ascent="1536" descent="-512" />
<missing-glyph horiz-adv-x="614" />
<glyph horiz-adv-x="0" />
<glyph horiz-adv-x="682" />
<glyph unicode=" "  horiz-adv-x="614" />
<glyph unicode="&#x09;" horiz-adv-x="614" />
<glyph unicode="&#xa0;" horiz-adv-x="614" />
<glyph unicode="!" horiz-adv-x="342" d="M102 68q0 29 19.5 49t48.5 20t49.5 -20.5t20.5 -48.5q0 -29 -20.5 -48.5t-49.5 -19.5t-48.5 19.5t-19.5 48.5zM106 221v985h130v-755z" />
<glyph unicode="&#x22;" horiz-adv-x="581" d="M102 1137q0 29 19.5 49t48.5 20t49.5 -20.5t20.5 -48.5q0 -18 -6.5 -40t-17.5 -40.5t-25.5 -31.5t-32.5 -13q27 23 22 57h-10q-29 0 -48.5 19.5t-19.5 48.5zM342 1137q0 29 19.5 49t48.5 20t49 -20.5t20 -48.5q0 -18 -6 -40t-17.5 -40.5t-25.5 -31.5t-33 -13q27 23 23 57 h-10q-29 0 -48.5 19.5t-19.5 48.5z" />
<glyph unicode="#" horiz-adv-x="942" d="M102 408v129h162l27 125h-189v129h217l43 163h125l-34 -163h122l43 163h125l-36 -163h133v-129h-162l-27 -125h189v-129h-217l-43 -164h-127l36 164h-122l-43 -164h-125l37 164h-134zM395 537h123l29 125h-123z" />
<glyph unicode="$" horiz-adv-x="972" d="M102 815q0 57 21.5 107.5t58.5 87.5t87 58.5t108 21.5h53v116h129v-116h197l73 -129h-452q-59 0 -102.5 -43.5t-43.5 -102.5q0 -68 47.5 -95.5t119 -40.5t153.5 -20.5t153.5 -33t118.5 -78.5t47 -156q0 -57 -21.5 -106t-59 -86t-88 -57.5t-105.5 -20.5h-37v-121h-129v121 h-199l-73 129h438q61 0 103 41t42 100q0 66 -47 93.5t-118.5 41t-153.5 20.5t-153.5 32.5t-119 79t-47.5 157.5z" />
<glyph unicode="%" horiz-adv-x="1169" d="M102 850q0 45 16.5 84t46.5 67.5t68.5 46t81.5 17.5q45 0 84 -17.5t68 -46t46 -67.5t17 -84t-17 -84t-46 -68.5t-68 -46t-84 -16.5q-43 0 -81.5 16.5t-68.5 46t-46.5 68.5t-16.5 84zM231 850q0 -35 25 -60.5t59 -25.5q35 0 60.5 25.5t25.5 60.5t-25.5 60.5t-60.5 25.5 t-59.5 -25.5t-24.5 -60.5zM385 0l268 1206h131l-268 -1206h-131zM637 348q0 45 16.5 84t46 67.5t68.5 46t84 17.5t84 -17.5t67.5 -46t46 -67.5t17.5 -84q0 -43 -17.5 -82t-46 -68.5t-67.5 -46t-84 -16.5t-84 16.5t-68.5 46t-46 68.5t-16.5 82zM766 348q0 -35 25.5 -59.5 t60.5 -24.5t60.5 24.5t25.5 59.5t-25.5 60.5t-60.5 25.5t-60.5 -25.5t-25.5 -60.5z" />
<glyph unicode="&#x26;" horiz-adv-x="1116" d="M102 1096h725l-73 -129h-373l289 -340h-203q-49 0 -87 -18.5t-63.5 -46t-40 -61.5t-14.5 -65q0 -86 59.5 -144.5t145.5 -58.5q41 0 78 15.5t64.5 43t45 64.5t17.5 78h-125v129h467l-74 -129h-139q0 -68 -26.5 -128t-72 -104t-105.5 -71t-130 -27q-68 0 -129.5 26 t-106.5 71t-71.5 105.5t-26.5 129.5q0 49 17.5 99.5t51.5 93.5t83 75t110 44z" />
<glyph unicode="'" horiz-adv-x="342" d="M102 1137q0 29 19.5 49t48.5 20t49.5 -20.5t20.5 -48.5q0 -18 -6.5 -40t-17.5 -40.5t-25.5 -31.5t-32.5 -13q27 23 22 57h-10q-29 0 -48.5 19.5t-19.5 48.5z" />
<glyph unicode="(" horiz-adv-x="641" d="M105.5 681q13.5 140 50.5 261q35 119 84 216t94 166t76.5 105.5t31.5 38.5l95 -88l-29 -34q-29 -33 -69 -94.5t-84 -149.5t-76.5 -195.5t-44 -233.5t13 -265.5t93.5 -289t198 -302.5l-99 -82q-141 168 -217 332.5t-103.5 319.5t-14 295z" />
<glyph unicode=")" horiz-adv-x="641" d="M102 -184q141 170 218 349t88.5 362.5t-41 366.5t-168.5 359q-20 31 -38 54.5t-30 40.5q-14 18 -27 32l95 88q0 -2 31.5 -38.5t76.5 -105.5t94.5 -166t83.5 -216q37 -121 50.5 -261t-14 -295t-103.5 -319.5t-217 -332.5z" />
<glyph unicode="*" horiz-adv-x="491" d="M102 1024v74h54l-37 39l51 53l39 -39v55h74v-55l39 39l51 -53l-39 -39h55v-74h-55l39 -37l-51 -53l-39 39v-55h-74v55l-39 -39l-51 53l37 37h-54z" />
<glyph unicode="+" horiz-adv-x="739" d="M102 535v129h203v202h129v-202h203v-129h-203v-203h-129v203h-203z" />
<glyph unicode="," horiz-adv-x="342" d="M102 68q0 29 19.5 49t48.5 20t49.5 -20.5t20.5 -48.5q0 -18 -6.5 -40t-17.5 -40.5t-25.5 -31.5t-32.5 -13q27 27 22 57h-10q-29 0 -48.5 19.5t-19.5 48.5z" />
<glyph unicode="-" horiz-adv-x="739" d="M102 535v129h535v-129h-535z" />
<glyph unicode="." horiz-adv-x="342" d="M102 68q0 29 19.5 49t48.5 20t49.5 -20.5t20.5 -48.5q0 -29 -20.5 -48.5t-49.5 -19.5t-48.5 19.5t-19.5 48.5z" />
<glyph unicode="/" horiz-adv-x="720" d="M102 -268l392 1761l124 -27l-391 -1761z" />
<glyph unicode="0" d="M102 598q0 123 47.5 231.5t128 189.5t189 128t231.5 47q125 0 233.5 -47t189.5 -128t128 -189.5t47 -231.5t-47 -232.5t-128 -190.5t-189.5 -128t-233.5 -47q-123 0 -231.5 47t-189 128t-128 190.5t-47.5 232.5zM231 598q0 -98 37 -183t100.5 -148.5t148.5 -100.5 t181 -37q98 0 183.5 37t149 100.5t100 148.5t36.5 183q0 96 -36.5 181t-100 148.5t-148.5 100.5t-184 37q-96 0 -181 -37t-148.5 -100.5t-100.5 -148.5t-37 -181z" />
<glyph unicode="1" horiz-adv-x="462" d="M102 1204h258v-1204h-129v1075h-55z" />
<glyph unicode="2" horiz-adv-x="1058" d="M102 0l578 580l6 6q4 4 8 7t8 7q18 18 38 44t36.5 53.5t27.5 55t11 54.5q0 55 -21.5 104.5t-58.5 86t-86 57t-104 20.5h-242l-74 129h316q82 0 154.5 -30.5t127 -85t86 -127t31.5 -154.5q0 -43 -15.5 -87t-41 -87t-57 -81t-62.5 -67l-354 -356h469l73 -129h-854z" />
<glyph unicode="3" horiz-adv-x="1038" d="M102 1204h834l-363 -426q80 -12 143.5 -50t107.5 -91t67.5 -115.5t23.5 -124.5q0 -84 -31.5 -155.5t-86 -126t-128 -85t-155.5 -30.5q-84 0 -156.5 31.5t-126 87t-85 128t-31.5 156.5v21h129v-21q0 -57 21.5 -107t58 -87t86 -58.5t104.5 -21.5q57 0 106.5 20.5t86 57.5 t58 86t21.5 104q0 43 -18 88t-53 82t-86 61.5t-115 24.5h-217l360 422h-481z" />
<glyph unicode="4" horiz-adv-x="1142" d="M102 223l801 1020v-891h64l73 -129h-137v-223h-129v223h-672zM367 352h407v518z" />
<glyph unicode="5" horiz-adv-x="1005" d="M102 403v21h129v-21q0 -57 21.5 -107t58.5 -87t86 -58.5t105 -21.5q57 0 106 20.5t86 57.5t58.5 86t21.5 104q0 57 -21.5 107.5t-58.5 88.5t-87 59.5t-105 21.5h-381v530h770l-74 -129h-567v-272h252q84 0 156.5 -33t127 -88t86 -129t31.5 -156q0 -84 -31.5 -155.5 t-86 -126t-128 -85t-155.5 -30.5q-84 0 -157 31.5t-126 87t-85 128t-32 156.5z" />
<glyph unicode="6" horiz-adv-x="1097" d="M102 440q0 72 20.5 136.5t57.5 117.5l258 510h146l-168 -332q59 20 133 21q92 0 173 -35t142.5 -95.5t96 -142t34.5 -174.5q0 -92 -34.5 -172.5t-96 -142t-142.5 -96.5t-173 -35t-173 34t-142.5 93t-96.5 140t-35 173zM231 440q0 -66 25 -122t68 -98t101 -66.5t124 -24.5 t124 24.5t101 67.5t67.5 101.5t24.5 123.5q0 66 -24.5 124.5t-67.5 101.5t-101.5 67.5t-123.5 24.5q-66 0 -123 -25.5t-100 -69.5t-69 -102.5t-26 -126.5z" />
<glyph unicode="7" horiz-adv-x="1064" d="M102 1204h861l-590 -1204h-144l527 1075h-580z" />
<glyph unicode="8" horiz-adv-x="929" d="M102 354q0 90 40 164t108 121q-68 47 -108 122t-40 165q0 72 28 135t75 110.5t110.5 75t135.5 27.5h26q72 0 135.5 -27.5t111.5 -75t75.5 -111t27.5 -134.5q0 -90 -41 -165t-106 -122q66 -47 106.5 -121t40.5 -164q0 -72 -27.5 -136t-74.5 -112.5t-110.5 -77 t-137.5 -28.5h-26q-74 0 -137.5 28.5t-110.5 77t-74 113t-27 135.5zM231 354q0 -47 17.5 -88t47.5 -71.5t70 -48t85 -17.5h26q45 0 85 17.5t71 48t48 71.5t17 88q0 45 -17 86t-48 71t-71 47t-85 17h-26q-45 0 -85 -17t-70 -47t-47.5 -71t-17.5 -86zM231 926q0 -47 17.5 -87 t47.5 -70t70 -47t85 -17h26q45 0 85 17t71 47t48 70t17 87q0 45 -17 85t-48 69.5t-71 47t-85 17.5h-26q-45 0 -85 -17.5t-70 -47t-47.5 -69.5t-17.5 -85z" />
<glyph unicode="9" horiz-adv-x="1097" d="M102 758q0 92 35 174t95.5 142.5t142.5 95t174 34.5t173 -33.5t142.5 -93t96 -140.5t34.5 -173q0 -72 -20 -135.5t-57 -118.5l-261 -510h-143l168 332q-31 -10 -64.5 -15.5t-68.5 -5.5q-92 0 -174 35t-142.5 96.5t-95.5 142.5t-35 173zM231 758q0 -66 25 -124.5 t68 -101.5t101 -67.5t124 -24.5t123 26t100 70t68.5 103t25.5 125t-24.5 122t-67.5 98t-101 66.5t-124 24.5t-124 -24.5t-101 -67.5t-68 -101.5t-25 -123.5z" />
<glyph unicode=":" horiz-adv-x="342" d="M102 68q0 29 19.5 49t48.5 20t49.5 -20.5t20.5 -48.5q0 -29 -20.5 -48.5t-49.5 -19.5t-48.5 19.5t-19.5 48.5zM102 971q0 29 19.5 49t48.5 20t49.5 -20.5t20.5 -48.5q0 -29 -20.5 -48.5t-49.5 -19.5t-48.5 19.5t-19.5 48.5z" />
<glyph unicode=";" horiz-adv-x="342" d="M102 68q0 29 19.5 49t48.5 20t49.5 -20.5t20.5 -48.5q0 -18 -6.5 -40t-17.5 -40.5t-25.5 -31.5t-32.5 -13q27 27 22 57h-10q-29 0 -48.5 19.5t-19.5 48.5zM102 971q0 29 19.5 49t48.5 20t49.5 -20.5t20.5 -48.5q0 -29 -20.5 -48.5t-49.5 -19.5t-48.5 19.5t-19.5 48.5z " />
<glyph unicode="&#x3c;" horiz-adv-x="602" d="M102 600l308 295l90 -94l-211 -201l211 -203l-90 -92z" />
<glyph unicode="=" horiz-adv-x="825" d="M102 387v129h621v-129h-621zM102 682v129h621v-129h-621z" />
<glyph unicode="&#x3e;" horiz-adv-x="602" d="M102 397l211 203l-211 201l88 94l310 -295l-310 -295z" />
<glyph unicode="?" horiz-adv-x="833" d="M102 874v17q0 66 25 123t67 100t99 67.5t123 24.5q63 0 120.5 -24.5t100.5 -66.5t68.5 -98t25.5 -122q0 -72 -43 -136.5t-98 -107.5q-96 -78 -109 -192v-238h-129v246q18 174 160 287q2 0 4 2l10 10q27 23 51.5 57.5t24.5 71.5t-14.5 70.5t-40 58.5t-59 39t-72.5 14 q-78 0 -131.5 -54t-53.5 -132v-17h-129zM348 68q0 29 20.5 49t49.5 20t48 -20.5t19 -48.5q0 -29 -19.5 -48.5t-47.5 -19.5q-29 0 -49.5 19.5t-20.5 48.5z" />
<glyph unicode="@" horiz-adv-x="1175" d="M102 575q0 100 38 189.5t104.5 155t154.5 104.5t189 39q100 0 188 -39t154.5 -104.5t104.5 -154.5t38 -190q0 -100 -38 -188t-104.5 -154.5t-154.5 -104.5t-188 -38t-188.5 38t-155 104.5t-104.5 154.5t-38 188zM231 575q0 -74 28 -138t77 -113.5t113.5 -77t138.5 -27.5 q76 0 142.5 30t113.5 81q-55 18 -96 71q-35 -37 -82.5 -58t-102.5 -21q-53 0 -99 20t-80 54t-54.5 80t-20.5 99t20.5 99.5t54.5 81.5t80 54t99 19q66 0 125 -32v14h129v-221q0 -12 5 -35t14.5 -46.5t25 -40.5t37.5 -17h23q23 61 22 124q0 74 -27.5 139.5t-76.5 115 t-113.5 77t-138.5 27.5t-138.5 -27.5t-113.5 -77t-77 -115t-28 -139.5zM438 575q0 -53 36 -88.5t89 -35.5t89 35.5t36 88.5t-36 89t-89 36t-89 -36t-36 -89z" />
<glyph unicode="A" horiz-adv-x="1306" d="M102 0l277 602h143l-278 -602h-142zM582 1040l71 156l551 -1196h-143z" />
<glyph unicode="B" horiz-adv-x="1099" d="M102 0v664h129v-664h-129zM102 1204h564q70 0 130 -27.5t105 -73.5t70.5 -107.5t25.5 -129.5q0 -84 -37 -152.5t-98 -115.5q61 -45 98 -114.5t37 -151.5q0 -70 -25.5 -130.5t-70.5 -105.5t-105.5 -70.5t-129.5 -25.5h-103l-74 129h177q86 0 144 58.5t58 144.5t-58 144.5 t-144 58.5h-103l-74 129h177q86 0 144 58t58 144q0 43 -16 81t-44 66.5t-64.5 45t-77.5 16.5h-490z" />
<glyph unicode="C" horiz-adv-x="1181" d="M102 600q0 123 47.5 233.5t128 192.5t190.5 130t234 48h377l-73 -129h-304q-98 0 -183 -38t-149.5 -102.5t-101.5 -150.5t-37 -184t37 -183t101.5 -149.5t149.5 -101.5t183 -37h304l73 -129h-377q-125 0 -234.5 47t-190 128t-128 190.5t-47.5 234.5z" />
<glyph unicode="D" horiz-adv-x="1181" d="M102 129h377q98 0 183.5 37t150 101.5t101 149.5t36.5 183t-36.5 184t-101 150.5t-149.5 102.5t-184 38h-303l-74 129h377q125 0 233.5 -48t190.5 -130t129 -192.5t47 -233.5q0 -125 -47 -234.5t-129 -190.5t-190.5 -128t-233.5 -47h-303z" />
<glyph unicode="E" horiz-adv-x="1083" d="M102 0v1204h805l74 -129h-750v-946h676l74 -129h-879zM412 664h495l74 -129h-496z" />
<glyph unicode="F" horiz-adv-x="1083" d="M102 0v664h805l74 -129h-750v-535h-129zM102 1204h805l74 -129h-805z" />
<glyph unicode="G" horiz-adv-x="1318" d="M102 600q0 123 47.5 233.5t128 192.5t190.5 130t234 48h441l74 -129h-515q-98 0 -183 -38t-149.5 -102.5t-101.5 -150.5t-37 -184t37 -183t101.5 -149.5t149.5 -101.5t183 -37h373v406h-201l-73 129h403v-664h-502q-125 0 -234.5 47t-190 128t-128 190.5t-47.5 234.5z " />
<glyph unicode="H" horiz-adv-x="1245" d="M102 0v1204l129 -227v-977h-129zM555 664h459v540h129v-1204h-129v535h-385z" />
<glyph unicode="I" horiz-adv-x="333" d="M102 0v977l129 227v-1204h-129z" />
<glyph unicode="J" horiz-adv-x="1097" d="M102 156l91 90q63 -63 139 -91q69 -25 136 -25h14q75 3 143.5 34t122 83t86 124.5t32.5 156.5v678l129 -227v-453q0 -113 -43 -208t-113.5 -164.5t-162.5 -109.5t-192 -44h-18l-180 34q-100 38 -184 122z" />
<glyph unicode="K" horiz-adv-x="1261" d="M102 0v1204h129v-862l756 862h172zM713 371h161l285 -371h-162z" />
<glyph unicode="L" horiz-adv-x="1167" d="M102 0v594v610h129v-610v-465h760l74 -129h-963z" />
<glyph unicode="M" horiz-adv-x="1511" d="M102 0v1192l652 -905l655 905v-227l-655 -910l-523 717v-772h-129zM1278 0v446l129 -229v-217h-129z" />
<glyph unicode="N" horiz-adv-x="1202" d="M102 0v1192l992 -1192h-166l-697 821v-821h-129zM971 575v390l129 227v-389z" />
<glyph unicode="O" d="M102 598q0 123 47.5 231.5t128 189.5t189 128t231.5 47q127 0 238 -47l-74 -111q-80 29 -164 29q-96 0 -181 -37t-148.5 -100.5t-100.5 -148.5t-37 -181q0 -92 32 -173t89 -142l-73 -111q-82 82 -129.5 191.5t-47.5 234.5zM463 49l74 109q80 -29 161 -29q98 0 183.5 37 t149 100.5t100 148.5t36.5 183q0 92 -31.5 172t-88.5 143l73 109q82 -82 129 -190.5t47 -233.5q0 -123 -47 -232.5t-128 -190.5t-189.5 -128t-233.5 -47q-129 0 -235 49z" />
<glyph unicode="P" horiz-adv-x="1103" d="M102 0v561h129v-561h-129zM102 1204h514q80 0 150 -30.5t122 -83t82.5 -122t30.5 -149.5t-30.5 -150.5t-82.5 -122.5t-122 -83t-150 -31h-127l-73 129h200q53 0 99.5 20.5t81 55.5t55 82t20.5 100t-20.5 99.5t-55 81t-81.5 55t-99 20.5h-440z" />
<glyph unicode="Q" horiz-adv-x="1458" d="M102 598q0 123 47.5 231.5t128 189.5t189 128t231.5 47q125 0 233.5 -47t189.5 -128t128 -189.5t47 -231.5q0 -131 -53 -248h-145q69 109 69 244q0 100 -36.5 185t-100 148.5t-148.5 100.5t-184 37q-96 0 -181 -37t-148.5 -100.5t-100.5 -148.5t-37 -181q0 -98 37 -183 t100.5 -148.5t148.5 -100.5t181 -37h373h211l74 -129h-658q-123 0 -231.5 47t-189 128t-128 190.5t-47.5 232.5z" />
<glyph unicode="R" horiz-adv-x="1177" d="M102 0v561h129v-561h-129zM102 1204h514q80 0 150 -30.5t122 -83t82.5 -122t30.5 -149.5q0 -74 -25.5 -139.5t-71.5 -116.5t-107 -85t-133 -42l411 -436h-176l-532 561h249q53 0 99.5 20.5t81 55.5t55 82t20.5 100t-20.5 99.5t-55 81t-81.5 55t-99 20.5h-440z" />
<glyph unicode="S" horiz-adv-x="1181" d="M102 870q0 70 26 130.5t71 105.5t105.5 71.5t129.5 26.5h508l74 -129h-582q-86 0 -144.5 -59.5t-58.5 -145.5t58.5 -144t144.5 -58h82h150h82q70 0 130 -27t105 -72t70.5 -105.5t25.5 -129.5q0 -68 -25.5 -129.5t-70.5 -106.5t-105.5 -71.5t-129.5 -26.5h-508l-74 129 h582q86 0 144 59.5t58 145.5t-58 145.5t-144 59.5h-82h-150h-82q-70 0 -130 25.5t-105 70.5t-71 105.5t-26 129.5z" />
<glyph unicode="T" horiz-adv-x="1222" d="M102 1204h1018v-129h-944zM547 0v561h129v-561h-129z" />
<glyph unicode="U" horiz-adv-x="1251" d="M102 526v680l129 -227v-453q0 -131 59.5 -218t146.5 -130t189.5 -43t189.5 44t145.5 131t58.5 218v678h129v-680q0 -113 -43 -208t-113.5 -164.5t-163 -109.5t-191.5 -44h-19q-89 0 -179 34q-100 38 -184 122q-78 78 -116 175t-38 195z" />
<glyph unicode="V" horiz-adv-x="1308" d="M102 1198h142l409 -891l412 891h141l-553 -1198z" />
<glyph unicode="W" horiz-adv-x="1861" d="M102 1198h140l346 -856l344 846l344 -844l346 854h137l-483 -1198l-344 846l-346 -846z" />
<glyph unicode="X" horiz-adv-x="1284" d="M102 0l918 1204h162l-459 -602l459 -602h-162l-377 496l-379 -496h-162zM102 1204h162l240 -313h-164z" />
<glyph unicode="Y" horiz-adv-x="1402" d="M102 1204h162l238 -313h-162zM653 0v518l490 686h157l-518 -727v-477h-129z" />
<glyph unicode="Z" horiz-adv-x="1200" d="M102 0l719 1075h-637l-73 129h950l-719 -1075h682l74 -129h-996z" />
<glyph unicode="[" horiz-adv-x="544" d="M102 -297v891v901h340l-73 -129h-138v-772v-762h211l-73 -129h-267z" />
<glyph unicode="\" horiz-adv-x="720" d="M102 1466l125 27l391 -1761l-124 -27z" />
<glyph unicode="]" horiz-adv-x="544" d="M102 -297l74 129h137v762v772h-211l74 129h266v-901v-891h-340z" />
<glyph unicode="^" horiz-adv-x="794" d="M102 1118l295 309l295 -309l-94 -88l-201 211l-202 -211z" />
<glyph unicode="_" horiz-adv-x="1705" />
<glyph unicode="`" horiz-adv-x="600" d="M102 1331l93 90l303 -315l-92 -90z" />
<glyph unicode="a" horiz-adv-x="1306" d="M102 0l551 1196l551 -1196h-143l-408 887l-409 -887h-142z" />
<glyph unicode="b" horiz-adv-x="1099" d="M102 0v1204h564q70 0 130 -27.5t105 -73.5t70.5 -107.5t25.5 -129.5q0 -84 -37 -152.5t-98 -115.5q61 -45 98 -114.5t37 -151.5q0 -70 -25.5 -130.5t-70.5 -105.5t-105.5 -70.5t-129.5 -25.5h-564zM231 129h435q86 0 144 58.5t58 144.5t-58 144.5t-144 58.5h-193l-74 129 h267q86 0 144 58t58 144q0 43 -16 81t-44 66.5t-64.5 45t-77.5 16.5h-435v-946z" />
<glyph unicode="c" horiz-adv-x="1312" d="M102 597q0 116 44 225.5t133 197.5q104 104 236 145q95 29 189 30q37 0 73 -5q130 -16 245 -89t188 -192l-108 -67q-57 94 -148.5 150.5t-193.5 69.5q-29 4 -58 4q-73 0 -146 -24q-103 -32 -185 -114q-109 -109 -133 -231q-9 -47 -9 -93q0 -72 23 -138q37 -110 123 -196 q85 -86 195 -122q67 -22 138 -22q46 0 94 8q122 24 230 132q37 37 70 86l108 -67q-74 -121 -188.5 -193t-244.5 -88q-36 -4 -73 -4q-94 0 -189 29q-132 41 -236 145q-88 88 -132.5 197.5t-44.5 225.5z" />
<glyph unicode="d" horiz-adv-x="1181" d="M102 0v672v532h377q125 0 233.5 -48t190.5 -130t129 -192.5t47 -233.5q0 -125 -47 -234.5t-129 -190.5t-190.5 -128t-233.5 -47h-377zM231 129h248q98 0 183.5 37t150 101.5t101 149.5t36.5 183t-36.5 184t-101 150.5t-150 102.5t-183.5 38h-248v-403v-543z" />
<glyph unicode="e" horiz-adv-x="1083" d="M102 0v598v606h805l74 -129h-750v-411h676l74 -129h-750v-406h676l74 -129h-879z" />
<glyph unicode="f" horiz-adv-x="1083" d="M102 0v1204h805l74 -129h-750v-411h676l74 -129h-750v-535h-129z" />
<glyph unicode="g" horiz-adv-x="1402" d="M104 584v21q0 102 38 205q42 114 139 210q104 104 236 145q95 29 189 29q37 0 73 -4q130 -16 245 -89t188 -192l-108 -67q-57 94 -148.5 150.5t-192.5 69.5q-29 4 -58 4q-73 0 -147 -24q-103 -32 -185 -114q-76 -76 -110 -165q-30 -79 -30 -156q0 -11 1 -21 q4 -88 39.5 -171t97 -146.5t146.5 -101.5t185 -38q88 0 168 30.5t142.5 84t102.5 126t52 158.5h-196l-74 129h403v-63q0 -125 -47 -233.5t-128 -188.5t-190.5 -126t-232.5 -46q-129 0 -236.5 49t-186 130t-124.5 186.5t-51 218.5z" />
<glyph unicode="h" horiz-adv-x="1245" d="M102 0v1204l129 -227v-313h783v540h129v-1204h-129v535h-783v-535h-129z" />
<glyph unicode="i" horiz-adv-x="333" d="M102 0v1204h129v-1204h-129z" />
<glyph unicode="j" horiz-adv-x="1042" d="M102 129h330q80 2 149.5 35t120 86t80 123.5t29.5 150.5v680l129 -227v-453q0 -106 -39 -200.5t-107.5 -165t-160.5 -112.5t-199 -46h-258z" />
<glyph unicode="k" horiz-adv-x="1259" d="M102 0v1204h129v-1204h-129zM244 604l714 -604h199l-713 604l709 600h-199z" />
<glyph unicode="l" horiz-adv-x="1167" d="M102 0v594v610h129v-610v-465h760l74 -129h-963z" />
<glyph unicode="m" horiz-adv-x="1511" d="M102 0v1196l652 -909l655 909v-1196h-129v774l-526 -719l-523 717v-772h-129z" />
<glyph unicode="n" horiz-adv-x="1208" d="M102 0v1210l875 -934v707l129 227v-1273l-875 933v-870h-129z" />
<glyph unicode="o" d="M102 598q0 123 47.5 231.5t128 189.5t189 128t231.5 47q125 0 233.5 -47t189.5 -128t128 -189.5t47 -231.5t-47 -232.5t-128 -190.5t-189.5 -128t-233.5 -47q-123 0 -231.5 47t-189 128t-128 190.5t-47.5 232.5zM231 598q0 -98 37 -183t100.5 -148.5t148.5 -100.5 t181 -37q98 0 183.5 37t149 100.5t100 148.5t36.5 183q0 96 -36.5 181t-100 148.5t-148.5 100.5t-184 37q-96 0 -181 -37t-148.5 -100.5t-100.5 -148.5t-37 -181z" />
<glyph unicode="p" horiz-adv-x="1103" d="M102 0v432v129v643h514q80 0 150 -30.5t122 -83t82.5 -122t30.5 -149.5t-30.5 -150.5t-82.5 -122.5t-122 -83t-150 -31h-385v-432h-129zM231 561h385q53 0 99.5 20.5t81 55.5t55 82t20.5 100t-20.5 99.5t-55 81t-81.5 55t-99 20.5h-385v-514z" />
<glyph unicode="q" horiz-adv-x="1452" d="M102 598q0 123 47.5 231.5t128 189.5t189 128t231.5 47q125 0 233.5 -47t189.5 -128t128 -189.5t47 -231.5q0 -113 -37.5 -212t-105.5 -177l197 -209h-179l-112 121q-76 -57 -167 -89t-194 -32q-123 0 -231.5 47t-189 128t-128 190.5t-47.5 232.5zM231 598q0 -98 37 -183 t100.5 -148.5t148.5 -100.5t181 -37q98 0 183.5 37t149 100.5t100 148.5t36.5 183q0 96 -36.5 181t-100 148.5t-148.5 100.5t-184 37q-96 0 -181 -37t-148.5 -100.5t-100.5 -148.5t-37 -181z" />
<glyph unicode="r" horiz-adv-x="1177" d="M102 0v1204h514q80 0 150 -30.5t122 -83t82.5 -122t30.5 -149.5q0 -74 -25.5 -139.5t-71.5 -116.5t-107 -85t-133 -42l411 -436h-176l-532 561h249q53 0 99.5 20.5t81 55.5t55 82t20.5 100t-20.5 99.5t-55 81t-81.5 55t-99 20.5h-385v-1075h-129z" />
<glyph unicode="s" horiz-adv-x="1153" d="M102 870q0 70 27 131.5t72 106.5t105.5 70.5t129.5 25.5h506l74 -129h-580q-43 0 -80 -16.5t-64.5 -44t-44 -64.5t-16.5 -80q0 -70 35 -107.5t93.5 -59t131 -30.5t149.5 -18.5t150.5 -26t132 -50t93.5 -93t35 -155.5q0 -70 -27 -130.5t-72 -104.5t-106.5 -69.5 t-128.5 -25.5h-488l-73 129h561q43 0 80 15.5t64.5 43t44 63.5t16.5 79q0 90 -60.5 129t-152 56t-197.5 26.5t-197.5 39t-152 95t-60.5 194.5z" />
<glyph unicode="t" horiz-adv-x="1222" d="M102 1204h445h129h444v-129h-444v-1075h-129v1075h-371z" />
<glyph unicode="u" horiz-adv-x="1251" d="M102 526v680l129 -227v-453q0 -131 59.5 -218t146.5 -130t189.5 -43t189.5 44t145.5 131t58.5 218v678h129v-680q0 -113 -43 -208t-113.5 -164.5t-163 -109.5t-191.5 -44h-19q-89 0 -179 34q-100 38 -184 122q-78 78 -116 175t-38 195z" />
<glyph unicode="v" horiz-adv-x="1308" d="M102 1198h142l409 -891l412 891h141l-553 -1198z" />
<glyph unicode="w" horiz-adv-x="1861" d="M102 1198h140l346 -856l344 846l344 -844l346 854h137l-483 -1198l-344 846l-346 -846z" />
<glyph unicode="x" horiz-adv-x="1284" d="M102 0l459 602l-459 602h162l379 -495l377 495h162l-459 -602l459 -602h-162l-377 496l-379 -496h-162z" />
<glyph unicode="y" horiz-adv-x="1402" d="M102 1204h162l453 -596l426 596h157l-518 -727v-477h-129v477z" />
<glyph unicode="z" horiz-adv-x="1163" d="M102 0l719 1075h-637l-73 129h950l-719 -1075h719v-129h-959z" />
<glyph unicode="{" horiz-adv-x="694" d="M102 594l158 901h332l-74 -129h-149l-136 -772l136 -762h223l-74 -129h-258z" />
<glyph unicode="|" horiz-adv-x="335" d="M102 -268v1761l131 2l-6 -1763h-125z" />
<glyph unicode="}" horiz-adv-x="694" d="M102 -297l74 129h148l137 762l-137 772h-222l74 129h256l160 -901l-160 -891h-330z" />
<glyph unicode="~" horiz-adv-x="653" d="M102 520v8q0 27 9.5 53.5t27 47t42 34t52.5 13.5q59 0 96.5 -36t37.5 -97q0 -35 16 -49.5t35 -14.5q20 0 39.5 20.5t19.5 55.5v4h74v-4q0 -55 -37 -102t-96 -47q-49 0 -87 35.5t-38 101.5q0 59 -60 59q-18 0 -37.5 -19.5t-19.5 -54.5v-8h-74z" />
<glyph unicode="&#xa1;" horiz-adv-x="348" d="M102 963q0 29 20.5 50t51.5 21q29 0 50.5 -21.5t21.5 -49.5q0 -31 -21.5 -52.5t-50.5 -21.5q-31 0 -51.5 21.5t-20.5 52.5zM115 240v516h129v-516h-129z" />
<glyph unicode="&#xa2;" horiz-adv-x="868" d="M102 600q0 74 29 145.5t86 128.5q82 80 191 105v86h129v-80q63 -8 122.5 -35.5t106.5 -75.5l-92 -92q-59 59 -127 72.5t-128.5 -7t-107.5 -67.5t-67.5 -107.5t-7 -128t72.5 -126.5q37 -39 85 -58.5t97.5 -19.5t97.5 19.5t85 58.5l92 -92q-47 -47 -106.5 -75t-122.5 -36 v-76h-129v82q-109 25 -191 105q-57 57 -86 128.5t-29 145.5z" />
<glyph unicode="&#xa3;" horiz-adv-x="1091" d="M102 535v129h199q0 57 5 110t20.5 102.5t43 96.5t76.5 96q61 61 128 92t136.5 36t139.5 -11.5t139 -46.5l-53 -119q-106 47 -196.5 44t-158 -47t-107.5 -123t-42 -183q-2 -12 -2 -23.5v-23.5h207v-129h-221l-127 -406h674v-129h-850l168 535h-179z" />
<glyph unicode="&#xa4;" horiz-adv-x="780" d="M102 403l68 68q-35 57 -35 127q0 72 35 129l-68 70l91 90l69 -68q59 33 127 33q70 0 129 -35l70 70l90 -90l-70 -70q35 -59 35 -129t-35 -127l70 -68l-90 -92l-70 68q-57 -35 -129 -35q-70 0 -129 35l-67 -68zM264 598q0 -53 36 -89t89 -36t89 36t36 89t-36 89t-89 36 t-89 -36t-36 -89z" />
<glyph unicode="&#xa5;" horiz-adv-x="1296" d="M102 1204h156l404 -590l378 590h154l-442 -688h200v-129h-225v-143h225v-129h-225v-115h-129v115h-266v129h266v143h-266v129h241z" />
<glyph unicode="&#xa6;" horiz-adv-x="335" d="M102 -266v674l131 2l-6 -676h-125zM102 819v674l131 2l-6 -676h-125z" />
<glyph unicode="&#xa7;" horiz-adv-x="647" d="M102 381v12h129v-12q0 -16 15.5 -31.5t42.5 -15.5h80q20 0 33.5 14t13.5 33q-4 16 -30 25.5t-60.5 18.5t-73.5 20.5t-73 32t-55.5 51t-21.5 79.5q0 31 10.5 58.5t26.5 50.5q-37 41 -37 100q0 37 14.5 69t38 56.5t55.5 37.5t69 13h79q29 0 62 -11t60.5 -32.5t46 -54.5 t18.5 -78v-12h-129v12q0 18 -15.5 32.5t-42.5 14.5h-79q-20 0 -34 -14t-14 -33q0 -20 43 -33h5q33 -12 78.5 -23t86.5 -30.5t71 -52.5t30 -86q0 -63 -39 -113q39 -35 39 -98q0 -37 -14.5 -68.5t-38 -56.5t-55 -38t-68.5 -13h-80q-29 0 -61.5 11t-60.5 32.5t-46.5 54.5 t-18.5 78zM231 608q0 -23 45.5 -35t102.5 -28q37 10 37 47q-4 12 -17.5 19t-35 13.5t-47 12.5t-52.5 14q-33 -10 -33 -43z" />
<glyph unicode="&#xa8;" horiz-adv-x="722" d="M102 1110q0 35 26 60.5t60 25.5q35 0 60.5 -25.5t25.5 -60.5q0 -37 -25.5 -62.5t-60.5 -25.5t-60.5 25.5t-25.5 62.5zM449 1110q0 35 25.5 60.5t60.5 25.5t60.5 -25.5t25.5 -60.5q0 -37 -26 -62.5t-60 -25.5q-35 0 -60.5 25.5t-25.5 62.5z" />
<glyph unicode="&#xa9;" horiz-adv-x="1175" d="M102 600q0 100 38 188.5t104.5 155t154.5 104t189 37.5q100 0 188 -37.5t154.5 -104t104.5 -155t38 -188.5t-38 -188t-104.5 -155t-154.5 -104.5t-188 -37.5t-188.5 37.5t-155 104.5t-104.5 155t-38 188zM231 600q0 -74 28 -139.5t77 -113.5t113.5 -75.5t138.5 -27.5 t138.5 27.5t113.5 75.5t76.5 113.5t27.5 139.5t-27.5 138.5t-76.5 113.5t-113.5 76.5t-138.5 27.5t-138.5 -27.5t-113.5 -76.5t-77 -113.5t-28 -138.5zM334 599q0 48 18.5 95t55.5 84t84 56.5t96 19.5t96 -19.5t84 -56.5l-92 -90q-43 43 -93.5 38t-83 -39t-37.5 -84t38 -93 q35 -35 87 -35t89 35l92 -90q-37 -37 -84 -56.5t-96 -19.5t-96.5 19.5t-83.5 56.5q-37 37 -55.5 84t-18.5 95z" />
<glyph unicode="&#xaa;" horiz-adv-x="583" d="M74 1022l215 469l213 -469h-90l-123 268l-125 -268h-90z" />
<glyph unicode="&#xab;" horiz-adv-x="985" d="M102 600l308 295l90 -94l-211 -201l211 -203l-90 -92zM485 600l308 295l90 -94l-211 -201l211 -203l-90 -92z" />
<glyph unicode="&#xac;" horiz-adv-x="741" d="M84 856v96h563v-471l-96 56v319h-467z" />
<glyph unicode="&#xad;" horiz-adv-x="1705" />
<glyph unicode="&#xae;" horiz-adv-x="815" d="M94 1022q0 63 24.5 120.5t66.5 98.5t98.5 65.5t122.5 24.5q63 0 120.5 -24.5t98.5 -65.5t65.5 -98.5t24.5 -120.5q0 -66 -24.5 -122t-65.5 -98t-98.5 -66.5t-120.5 -24.5q-66 0 -122.5 24.5t-98.5 66.5t-66.5 98t-24.5 122zM152 1020q0 -53 20.5 -99.5t55 -81t80.5 -54 t100 -19.5q51 0 98 19.5t81 54t54.5 81t20.5 99.5q0 51 -20.5 98t-54.5 81t-81 54.5t-98 20.5q-53 0 -99.5 -20.5t-81 -54.5t-55 -81t-20.5 -98zM285 862v350h149q49 0 83 -34.5t34 -81.5q0 -39 -23.5 -70t-58.5 -41l115 -123h-74l-166 174h90q25 0 43.5 17.5t18.5 42.5 t-18.5 42t-43.5 17h-92v-293h-57z" />
<glyph unicode="&#xb0;" horiz-adv-x="632" d="M102 1241q0 45 16.5 84t46.5 67.5t68.5 46t81.5 17.5q45 0 84 -17.5t68 -46t46 -67.5t17 -84t-17 -84t-46 -67.5t-68 -45t-84 -16.5q-43 0 -81.5 16.5t-68.5 45t-46.5 67.5t-16.5 84zM231 1241q0 -35 25 -59.5t59 -24.5q35 0 60.5 24.5t25.5 59.5t-25.5 60.5t-60.5 25.5 t-59.5 -25.5t-24.5 -60.5z" />
<glyph unicode="&#xb1;" horiz-adv-x="739" d="M102 174v129h535v-129h-535zM102 629v129h203v203h129v-203h203v-129h-203v-203h-129v203h-203z" />
<glyph unicode="&#xb2;" horiz-adv-x="493" d="M57 1022l224 227q0 2 2 2t4 2q10 12 20 26.5t10 27.5q0 29 -20.5 49t-48.5 20h-92l-47 82h139q61 0 106 -43t45 -108q0 -31 -20.5 -65t-42.5 -54l-84 -84h119l49 -82h-363z" />
<glyph unicode="&#xb3;" horiz-adv-x="485" d="M68 1464h354l-127 -149q45 -18 68.5 -57t23.5 -78q0 -63 -43 -106.5t-108 -43.5q-61 0 -104.5 45t-43.5 107v28h80v-28q0 -29 19.5 -49.5t48.5 -20.5t49 19.5t20 48.5q0 23 -17.5 43t-51.5 20h-111l117 139h-127z" />
<glyph unicode="&#xb4;" horiz-adv-x="600" d="M102 1116l304 316l92 -91l-303 -315z" />
<glyph unicode="&#xb5;" horiz-adv-x="1251" d="M98 0v561h4v645l129 -227v-453q0 -131 59.5 -218t146.5 -130t189.5 -43t189.5 44t145.5 131t58.5 218v678h129v-680q0 -113 -43 -208t-113.5 -164.5t-163 -109.5t-191.5 -44t-198.5 34t-183.5 122l-29 30v-186h-129z" />
<glyph unicode="&#xb6;" horiz-adv-x="782" d="M102 760q0 55 20.5 103t56.5 84t83 56.5t103 20.5h223v-397h92v-129h-92v-258h-129v258h-94q-55 0 -102.5 20.5t-83.5 56t-56.5 83t-20.5 102.5zM231 760q0 -55 39 -94t95 -39h94v268h-94q-55 0 -94.5 -40t-39.5 -95z" />
<glyph unicode="&#xb7;" horiz-adv-x="342" d="M102 612q0 29 19.5 49.5t48.5 20.5t49.5 -20.5t20.5 -49.5t-20.5 -48t-49.5 -19t-48.5 19t-19.5 48z" />
<glyph unicode="&#xb8;" horiz-adv-x="602" d="M102 -281h129v-8q0 -29 20.5 -49t49.5 -20t49.5 19.5t20.5 47.5q0 16 -16.5 32.5l-20.5 20.5q-86 68 -98 175v67h129v-59q10 -51 49 -82q35 -29 60.5 -68t25.5 -86q0 -84 -58.5 -140t-140.5 -56q-84 0 -141.5 57t-57.5 141v8z" />
<glyph unicode="&#xb9;" horiz-adv-x="288" d="M66 1450h137v-428h-80v346h-10z" />
<glyph unicode="&#xba;" horiz-adv-x="618" d="M84 1247q0 45 17.5 86t47 71t69.5 47t87 17q45 0 86 -17t71 -47t47 -71t17 -86q0 -47 -17 -87t-47 -69.5t-71 -47t-86 -17.5q-47 0 -87 17.5t-69.5 47t-47 69.5t-17.5 87zM168 1247q0 -57 40 -97t97 -40t97 40t40 97t-40 97t-97 40t-97 -40t-40 -97z" />
<glyph unicode="&#xbb;" horiz-adv-x="985" d="M102 397l211 203l-211 201l88 94l310 -295l-310 -295zM485 397l211 203l-211 201l88 94l310 -295l-310 -295z" />
<glyph unicode="&#xbf;" horiz-adv-x="624" d="M102 436q0 47 27 90t64 72q47 37 55 92v66h129v-72q-8 -59 -37 -108.5t-74 -83.5q-10 -10 -22.5 -25.5t-12.5 -30.5q0 -33 22.5 -55.5t57.5 -22.5t58.5 22.5t23.5 57.5v8h129v-8q0 -43 -16.5 -82t-45 -66.5t-67.5 -44t-82 -16.5t-80.5 16.5t-66.5 44t-45.5 65.5t-16.5 81 zM238 963q0 29 21.5 50t49.5 21q31 0 51.5 -21.5t20.5 -49.5q0 -31 -20.5 -52.5t-51.5 -21.5q-29 0 -50 21.5t-21 52.5z" />
<glyph unicode="&#xc0;" horiz-adv-x="1306" d="M102 0l277 602h143l-278 -602h-142zM455 1741l92 90l303 -315l-92 -91zM582 1040l71 156l551 -1196h-143z" />
<glyph unicode="&#xc1;" horiz-adv-x="1306" d="M102 0l277 602h143l-278 -602h-142zM455 1526l303 315l92 -90l-303 -315zM582 1040l71 156l551 -1196h-143z" />
<glyph unicode="&#xc2;" horiz-adv-x="1306" d="M102 0l277 602h143l-278 -602h-142zM358 1524l295 309l295 -309l-94 -88l-201 211l-202 -211zM582 1040l71 156l551 -1196h-143z" />
<glyph unicode="&#xc3;" horiz-adv-x="1306" d="M102 0l277 602h143l-278 -602h-142zM428 1556v9q0 55 36 102t95 47t96 -37t37 -98q0 -35 16.5 -48t34.5 -13q20 0 40 20.5t20 52.5v6h74v-6q0 -27 -10.5 -53.5t-28 -47t-42 -33.5t-53.5 -13q-49 0 -87 34.5t-38 100.5q0 61 -59 61q-18 0 -37.5 -20.5t-19.5 -54.5v-9h-74z M582 1040l71 156l551 -1196h-143z" />
<glyph unicode="&#xc4;" horiz-adv-x="1306" d="M102 0l277 602h143l-278 -602h-142zM393 1520q0 35 25.5 60.5t60.5 25.5t60.5 -26t25.5 -60q0 -37 -25.5 -62.5t-60.5 -25.5t-60.5 25.5t-25.5 62.5zM582 1040l71 156l551 -1196h-143zM739 1520q0 35 26 60.5t60 25.5q35 0 60.5 -26t25.5 -60q0 -37 -25.5 -62.5 t-60.5 -25.5t-60.5 25.5t-25.5 62.5z" />
<glyph unicode="&#xc5;" horiz-adv-x="1306" d="M102 0l277 602h143l-278 -602h-142zM438 1651q0 45 16.5 84t46 67.5t68.5 46t82 17.5q45 0 84 -17.5t67.5 -46t46 -67.5t17.5 -84t-17.5 -84t-46 -68t-67.5 -45t-84 -16q-43 0 -82 16t-68.5 45t-46 68t-16.5 84zM567 1651q0 -35 24.5 -59.5t59.5 -24.5t60.5 24.5 t25.5 59.5t-25.5 60.5t-60.5 25.5t-59.5 -25.5t-24.5 -60.5zM582 1040l71 156l551 -1196h-143z" />
<glyph unicode="&#xc6;" horiz-adv-x="2041" d="M102 0l277 602h143l-278 -602h-142zM582 1040l71 156l408 -885v893h805l73 -129h-749v-946h676l73 -129h-878zM1370 664h496l73 -129h-495z" />
<glyph unicode="&#xc7;" horiz-adv-x="1181" d="M102 600q0 123 47.5 233.5t128 192.5t190.5 130t234 48h377l-73 -129h-304q-98 0 -183 -38t-149.5 -102.5t-101.5 -150.5t-37 -184t37 -183t101.5 -149.5t149.5 -101.5t183 -37h304l73 -129h-377h-24t-25 2v-37q10 -51 49 -82q35 -29 60.5 -67.5t25.5 -85.5 q0 -84 -58 -140.5t-140 -56.5q-84 0 -141.5 57.5t-57.5 141.5v8h129v-8q0 -29 20.5 -49.5t49.5 -20.5t49 19.5t20 48.5q0 16 -16 32.5t-20 20.5q-86 68 -99 174v68h8q-94 27 -172.5 82t-136 130.5t-89.5 168t-32 194.5z" />
<glyph unicode="&#xc8;" horiz-adv-x="1083" d="M102 0v1204h805l74 -129h-750v-946h676l74 -129h-879zM344 1741l92 90l303 -315l-92 -91zM412 664h495l74 -129h-496z" />
<glyph unicode="&#xc9;" horiz-adv-x="1083" d="M102 0v1204h805l74 -129h-750v-946h676l74 -129h-879zM344 1526l303 315l92 -90l-303 -315zM412 664h495l74 -129h-496z" />
<glyph unicode="&#xca;" horiz-adv-x="1083" d="M102 0v1204h805l74 -129h-750v-946h676l74 -129h-879zM246 1524l295 309l295 -309l-95 -88l-200 211l-203 -211zM412 664h495l74 -129h-496z" />
<glyph unicode="&#xcb;" horiz-adv-x="1083" d="M102 0v1204h805l74 -129h-750v-946h676l74 -129h-879zM283 1520q0 35 25.5 60.5t60.5 25.5t60.5 -26t25.5 -60q0 -37 -26 -62.5t-60 -25.5q-35 0 -60.5 25.5t-25.5 62.5zM412 664h495l74 -129h-496zM629 1520q0 35 25.5 60.5t60.5 25.5t60.5 -26t25.5 -60 q0 -37 -25.5 -62.5t-60.5 -25.5t-60.5 25.5t-25.5 62.5z" />
<glyph unicode="&#xcc;" horiz-adv-x="600" d="M102 1741l93 90l303 -315l-92 -91zM236 0h129v1204l-129 -227v-977z" />
<glyph unicode="&#xcd;" horiz-adv-x="600" d="M102 1526l304 315l92 -90l-303 -315zM236 0h129v1204l-129 -227v-977z" />
<glyph unicode="&#xce;" horiz-adv-x="794" d="M102 1524l295 309l295 -309l-94 -88l-201 211l-202 -211zM332 0h129v1204l-129 -227v-977z" />
<glyph unicode="&#xcf;" horiz-adv-x="722" d="M102 1520q0 35 26 60.5t60 25.5q35 0 60.5 -26t25.5 -60q0 -37 -25.5 -62.5t-60.5 -25.5t-60.5 25.5t-25.5 62.5zM297 0h129v1204l-129 -227v-977zM449 1520q0 35 25.5 60.5t60.5 25.5t60.5 -26t25.5 -60q0 -37 -26 -62.5t-60 -25.5q-35 0 -60.5 25.5t-25.5 62.5z" />
<glyph unicode="&#xd0;" horiz-adv-x="1216" d="M102 551v129h535v-129h-535zM137 129h377q98 0 183 37t149.5 101.5t101.5 149.5t37 183t-37 184t-101.5 150.5t-149.5 102.5t-183 38h-303l-74 129h377q125 0 233.5 -48t190.5 -130t129 -192.5t47 -233.5q0 -125 -47 -234.5t-129 -190.5t-190.5 -128t-233.5 -47h-303z " />
<glyph unicode="&#xd1;" horiz-adv-x="1202" d="M102 0v1192l992 -1192h-166l-697 821v-821h-129zM377 1556v9q0 55 36 102t95 47t96 -37t37 -98q0 -35 16.5 -48t34.5 -13q20 0 40 20.5t20 52.5v6h73v-6q0 -27 -10 -53.5t-27.5 -47t-42 -33.5t-53.5 -13q-49 0 -87 34.5t-38 100.5q0 61 -59 61q-18 0 -37.5 -20.5 t-19.5 -54.5v-9h-74zM971 575v390l129 227v-389z" />
<glyph unicode="&#xd2;" d="M102 598q0 123 47.5 231.5t128 189.5t189 128t231.5 47q127 0 238 -47l-74 -111q-80 29 -164 29q-96 0 -181 -37t-148.5 -100.5t-100.5 -148.5t-37 -181q0 -92 32 -173t89 -142l-73 -111q-82 82 -129.5 191.5t-47.5 234.5zM463 49l74 109q80 -29 161 -29q98 0 183.5 37 t149 100.5t100 148.5t36.5 183q0 92 -31.5 172t-88.5 143l73 109q82 -82 129 -190.5t47 -233.5q0 -123 -47 -232.5t-128 -190.5t-189.5 -128t-233.5 -47q-129 0 -235 49zM502 1741l92 90l303 -315l-92 -91z" />
<glyph unicode="&#xd3;" d="M102 598q0 123 47.5 231.5t128 189.5t189 128t231.5 47q127 0 238 -47l-74 -111q-80 29 -164 29q-96 0 -181 -37t-148.5 -100.5t-100.5 -148.5t-37 -181q0 -92 32 -173t89 -142l-73 -111q-82 82 -129.5 191.5t-47.5 234.5zM463 49l74 109q80 -29 161 -29q98 0 183.5 37 t149 100.5t100 148.5t36.5 183q0 92 -31.5 172t-88.5 143l73 109q82 -82 129 -190.5t47 -233.5q0 -123 -47 -232.5t-128 -190.5t-189.5 -128t-233.5 -47q-129 0 -235 49zM502 1526l303 315l92 -90l-303 -315z" />
<glyph unicode="&#xd4;" d="M102 598q0 123 47.5 231.5t128 189.5t189 128t231.5 47q127 0 238 -47l-74 -111q-80 29 -164 29q-96 0 -181 -37t-148.5 -100.5t-100.5 -148.5t-37 -181q0 -92 32 -173t89 -142l-73 -111q-82 82 -129.5 191.5t-47.5 234.5zM403 1524l295 309l295 -309l-94 -88l-201 211 l-202 -211zM463 49l74 109q80 -29 161 -29q98 0 183.5 37t149 100.5t100 148.5t36.5 183q0 92 -31.5 172t-88.5 143l73 109q82 -82 129 -190.5t47 -233.5q0 -123 -47 -232.5t-128 -190.5t-189.5 -128t-233.5 -47q-129 0 -235 49z" />
<glyph unicode="&#xd5;" d="M102 598q0 123 47.5 231.5t128 189.5t189 128t231.5 47q127 0 238 -47l-74 -111q-80 29 -164 29q-96 0 -181 -37t-148.5 -100.5t-100.5 -148.5t-37 -181q0 -92 32 -173t89 -142l-73 -111q-82 82 -129.5 191.5t-47.5 234.5zM463 49l74 109q80 -29 161 -29q98 0 183.5 37 t149 100.5t100 148.5t36.5 183q0 92 -31.5 172t-88.5 143l73 109q82 -82 129 -190.5t47 -233.5q0 -123 -47 -232.5t-128 -190.5t-189.5 -128t-233.5 -47q-129 0 -235 49zM475 1556v9q0 55 36 102t95 47t96 -37t37 -98q0 -35 16.5 -48t35.5 -13q20 0 39.5 20.5t19.5 52.5v6 h74v-6q0 -27 -10.5 -53.5t-28 -47t-42 -33.5t-52.5 -13q-49 0 -87 34.5t-38 100.5q0 61 -60 61q-18 0 -37.5 -20.5t-19.5 -54.5v-9h-74z" />
<glyph unicode="&#xd6;" d="M102 598q0 123 47.5 231.5t128 189.5t189 128t231.5 47q127 0 238 -47l-74 -111q-80 29 -164 29q-96 0 -181 -37t-148.5 -100.5t-100.5 -148.5t-37 -181q0 -92 32 -173t89 -142l-73 -111q-82 82 -129.5 191.5t-47.5 234.5zM440 1520q0 35 26 60.5t60 25.5q35 0 60.5 -26 t25.5 -60q0 -37 -25.5 -62.5t-60.5 -25.5t-60.5 25.5t-25.5 62.5zM463 49l74 109q80 -29 161 -29q98 0 183.5 37t149 100.5t100 148.5t36.5 183q0 92 -31.5 172t-88.5 143l73 109q82 -82 129 -190.5t47 -233.5q0 -123 -47 -232.5t-128 -190.5t-189.5 -128t-233.5 -47 q-129 0 -235 49zM786 1520q0 35 26 60.5t60 25.5q35 0 60.5 -26t25.5 -60q0 -37 -25.5 -62.5t-60.5 -25.5t-60.5 25.5t-25.5 62.5z" />
<glyph unicode="&#xd7;" horiz-adv-x="673" d="M102 457l144 143l-144 143l91 91l143 -144l143 144l92 -91l-143 -143l143 -143l-92 -92l-143 143l-143 -143z" />
<glyph unicode="&#xd8;" d="M102 598q0 123 47.5 231.5t128 189.5t189 128t231.5 47q16 0 33 -1t33 -3l67 303l125 -27l-67 -303q12 -4 23.5 -8t23.5 -8l-74 -111h-2l-201 -907h39q98 0 183.5 37t149 100.5t100 148.5t36.5 183q0 92 -31.5 172t-88.5 143l73 109q82 -82 129 -190.5t47 -233.5 q0 -123 -47 -232.5t-128 -190.5t-189.5 -128t-233.5 -47h-33.5t-33.5 2l-66 -297l-125 27l66 299l-43 18l72 105l200 909q-10 2 -18 2h-19q-96 0 -181 -37t-148.5 -100.5t-100.5 -148.5t-37 -181q0 -92 32 -173t89 -142l-73 -111q-82 82 -129.5 191.5t-47.5 234.5z" />
<glyph unicode="&#xd9;" horiz-adv-x="1251" d="M102 526v680l129 -227v-453q0 -131 59.5 -218t146.5 -130t189.5 -43t189.5 44t145.5 131t58.5 218v678h129v-680q0 -113 -43 -208t-113.5 -164.5t-163 -109.5t-191.5 -44t-198.5 34t-183.5 122q-78 78 -116 175t-38 195zM428 1741l92 90l303 -315l-92 -91z" />
<glyph unicode="&#xda;" horiz-adv-x="1251" d="M102 526v680l129 -227v-453q0 -131 59.5 -218t146.5 -130t189.5 -43t189.5 44t145.5 131t58.5 218v678h129v-680q0 -113 -43 -208t-113.5 -164.5t-163 -109.5t-191.5 -44t-198.5 34t-183.5 122q-78 78 -116 175t-38 195zM428 1526l303 315l92 -90l-303 -315z" />
<glyph unicode="&#xdb;" horiz-adv-x="1251" d="M102 526v680l129 -227v-453q0 -131 59.5 -218t146.5 -130t189.5 -43t189.5 44t145.5 131t58.5 218v678h129v-680q0 -113 -43 -208t-113.5 -164.5t-163 -109.5t-191.5 -44t-198.5 34t-183.5 122q-78 78 -116 175t-38 195zM330 1524l295 309l295 -309l-95 -88l-200 211 l-203 -211z" />
<glyph unicode="&#xdc;" horiz-adv-x="1251" d="M102 526v680l129 -227v-453q0 -131 59.5 -218t146.5 -130t189.5 -43t189.5 44t145.5 131t58.5 218v678h129v-680q0 -113 -43 -208t-113.5 -164.5t-163 -109.5t-191.5 -44t-198.5 34t-183.5 122q-78 78 -116 175t-38 195zM367 1520q0 35 25.5 60.5t60.5 25.5t60.5 -26 t25.5 -60q0 -37 -26 -62.5t-60 -25.5q-35 0 -60.5 25.5t-25.5 62.5zM713 1520q0 35 25.5 60.5t60.5 25.5t60.5 -26t25.5 -60q0 -37 -25.5 -62.5t-60.5 -25.5t-60.5 25.5t-25.5 62.5z" />
<glyph unicode="&#xdd;" horiz-adv-x="1402" d="M102 1204h162l238 -313h-162zM504 1526l303 315l92 -90l-303 -315zM653 0v518l490 686h157l-518 -727v-477h-129z" />
<glyph unicode="&#xde;" horiz-adv-x="1071" d="M102 0v1206h129v-268h406q70 0 130 -27.5t105.5 -73.5t71 -107.5t25.5 -129.5q0 -70 -27 -130t-72 -105.5t-105 -71t-128 -25.5h-406v-41zM231 397h406q41 0 78 15.5t64.5 43t44 64.5t16.5 80t-16.5 81t-44 66.5t-64.5 45t-78 16.5h-406v-412z" />
<glyph unicode="&#xdf;" horiz-adv-x="1099" d="M102 -203v1409h564q70 0 130 -27.5t105 -73.5t70.5 -108.5t25.5 -130.5q0 -82 -37 -151.5t-98 -114.5q61 -47 98 -115.5t37 -152.5q0 -68 -25.5 -128.5t-70.5 -105.5t-105.5 -71.5t-129.5 -26.5h-242v129h242q43 0 79.5 16.5t64.5 44t43 64.5t15 78q0 86 -58 144.5 t-144 58.5h-242v129h242q43 0 79.5 16t64.5 44t43 64.5t15 77.5q0 43 -16 81t-44 67.5t-64.5 46t-77.5 16.5h-435v-1050z" />
<glyph unicode="&#xe0;" horiz-adv-x="1306" d="M102 0l551 1196l551 -1196h-143l-408 887l-409 -887h-142zM455 1741l92 90l303 -315l-92 -91z" />
<glyph unicode="&#xe1;" horiz-adv-x="1306" d="M102 0l551 1196l551 -1196h-143l-408 887l-409 -887h-142zM455 1526l303 315l92 -90l-303 -315z" />
<glyph unicode="&#xe2;" horiz-adv-x="1306" d="M102 0l551 1196l551 -1196h-143l-408 887l-409 -887h-142zM358 1524l295 309l295 -309l-94 -88l-201 211l-202 -211z" />
<glyph unicode="&#xe3;" horiz-adv-x="1306" d="M102 0l551 1196l551 -1196h-143l-408 887l-409 -887h-142zM428 1556v9q0 55 36 102t95 47t96 -37t37 -98q0 -35 16.5 -48t34.5 -13q20 0 40 20.5t20 52.5v6h74v-6q0 -27 -10.5 -53.5t-28 -47t-42 -33.5t-53.5 -13q-49 0 -87 34.5t-38 100.5q0 61 -59 61 q-18 0 -37.5 -20.5t-19.5 -54.5v-9h-74z" />
<glyph unicode="&#xe4;" horiz-adv-x="1306" d="M102 0l551 1196l551 -1196h-143l-408 887l-409 -887h-142zM393 1520q0 35 25.5 60.5t60.5 25.5t60.5 -26t25.5 -60q0 -37 -25.5 -62.5t-60.5 -25.5t-60.5 25.5t-25.5 62.5zM739 1520q0 35 26 60.5t60 25.5q35 0 60.5 -26t25.5 -60q0 -37 -25.5 -62.5t-60.5 -25.5 t-60.5 25.5t-25.5 62.5z" />
<glyph unicode="&#xe5;" horiz-adv-x="1306" d="M102 0l551 1196l551 -1196h-143l-408 887l-409 -887h-142zM438 1651q0 45 16.5 84t46 67.5t68.5 46t82 17.5q45 0 84 -17.5t67.5 -46t46 -67.5t17.5 -84t-17.5 -84t-46 -68t-67.5 -45t-84 -16q-43 0 -82 16t-68.5 45t-46 68t-16.5 84zM567 1651q0 -35 24.5 -59.5 t59.5 -24.5t60.5 24.5t25.5 59.5t-25.5 60.5t-60.5 25.5t-59.5 -25.5t-24.5 -60.5z" />
<glyph unicode="&#xe6;" horiz-adv-x="2039" d="M102 0l551 1196l406 -881v889h805l73 -129h-749v-411h676l73 -129h-749v-406h676l73 -129h-878v4l-406 883l-409 -887h-142z" />
<glyph unicode="&#xe7;" horiz-adv-x="1312" d="M102 597q0 116 44 225.5t133 197.5q104 104 236 145t262 25t245 -89t188 -192l-108 -67q-57 94 -148.5 150.5t-193 69.5t-204.5 -19.5t-185 -114.5q-109 -109 -132.5 -231t13.5 -231.5t123 -195.5t195.5 -122.5t231.5 -13t230 131.5q37 37 70 86l108 -67 q-82 -135 -213 -208t-278 -77v-35q10 -51 49 -82q35 -29 60.5 -67.5t25.5 -85.5q0 -84 -58.5 -140.5t-140.5 -56.5q-84 0 -141 57.5t-57 141.5v8h129v-8q0 -29 20.5 -49.5t48.5 -20.5q29 0 49.5 19.5t20.5 48.5q0 16 -16.5 32.5l-20.5 20.5q-86 68 -98 174v51 q-86 16 -165 57t-146 109q-88 88 -132.5 197.5t-44.5 225.5z" />
<glyph unicode="&#xe8;" horiz-adv-x="1083" d="M102 0v598v606h805l74 -129h-750v-411h676l74 -129h-750v-406h676l74 -129h-879zM344 1741l92 90l303 -315l-92 -91z" />
<glyph unicode="&#xe9;" horiz-adv-x="1083" d="M102 0v598v606h805l74 -129h-750v-411h676l74 -129h-750v-406h676l74 -129h-879zM344 1526l303 315l92 -90l-303 -315z" />
<glyph unicode="&#xea;" horiz-adv-x="1083" d="M102 0v598v606h805l74 -129h-750v-411h676l74 -129h-750v-406h676l74 -129h-879zM246 1524l295 309l295 -309l-95 -88l-200 211l-203 -211z" />
<glyph unicode="&#xeb;" horiz-adv-x="1083" d="M102 0v598v606h805l74 -129h-750v-411h676l74 -129h-750v-406h676l74 -129h-879zM283 1520q0 35 25.5 60.5t60.5 25.5t60.5 -26t25.5 -60q0 -37 -26 -62.5t-60 -25.5q-35 0 -60.5 25.5t-25.5 62.5zM629 1520q0 35 25.5 60.5t60.5 25.5t60.5 -26t25.5 -60 q0 -37 -25.5 -62.5t-60.5 -25.5t-60.5 25.5t-25.5 62.5z" />
<glyph unicode="&#xec;" horiz-adv-x="600" d="M102 1741l93 90l303 -315l-92 -91zM236 0v1204h129v-1204h-129z" />
<glyph unicode="&#xed;" horiz-adv-x="600" d="M102 1526l304 315l92 -90l-303 -315zM236 0v1204h129v-1204h-129z" />
<glyph unicode="&#xee;" horiz-adv-x="794" d="M102 1524l295 309l295 -309l-94 -88l-201 211l-202 -211zM332 0v1204h129v-1204h-129z" />
<glyph unicode="&#xef;" horiz-adv-x="722" d="M102 1520q0 35 26 60.5t60 25.5q35 0 60.5 -26t25.5 -60q0 -37 -25.5 -62.5t-60.5 -25.5t-60.5 25.5t-25.5 62.5zM297 0v1204h129v-1204h-129zM449 1520q0 35 25.5 60.5t60.5 25.5t60.5 -26t25.5 -60q0 -37 -26 -62.5t-60 -25.5q-35 0 -60.5 25.5t-25.5 62.5z" />
<glyph unicode="&#xf0;" horiz-adv-x="1097" d="M102 446q0 92 35 173t95.5 142.5t142.5 96.5t174 35q35 0 68.5 -5t64.5 -16l-168 332h143l261 -510q37 -55 57 -118.5t20 -135.5q0 -92 -34.5 -173t-96 -140t-142.5 -93t-173 -34t-174 35t-142.5 95t-95.5 142t-35 174zM231 446q0 -66 25 -124t68 -101t101 -67.5 t124 -24.5t124 24.5t101 66.5t67.5 98.5t24.5 121.5q0 66 -25.5 125.5t-68.5 103.5t-100.5 69.5t-122.5 25.5q-66 0 -124 -24.5t-101 -67.5t-68 -101.5t-25 -124.5z" />
<glyph unicode="&#xf1;" horiz-adv-x="1208" d="M102 0v1210l875 -934v707l129 227v-1273l-875 933v-870h-129zM377 1556v9q0 55 36 102t95 47t96 -37t37 -98q0 -35 16.5 -48t34.5 -13q20 0 40 20.5t20 52.5v6h73v-6q0 -27 -10 -53.5t-27.5 -47t-42 -33.5t-53.5 -13q-49 0 -87 34.5t-38 100.5q0 61 -59 61 q-18 0 -37.5 -20.5t-19.5 -54.5v-9h-74z" />
<glyph unicode="&#xf2;" d="M102 598q0 123 47.5 231.5t128 189.5t189 128t231.5 47q125 0 233.5 -47t189.5 -128t128 -189.5t47 -231.5t-47 -232.5t-128 -190.5t-189.5 -128t-233.5 -47q-123 0 -231.5 47t-189 128t-128 190.5t-47.5 232.5zM231 598q0 -98 37 -183t100.5 -148.5t148.5 -100.5 t181 -37q98 0 183.5 37t149 100.5t100 148.5t36.5 183q0 96 -36.5 181t-100 148.5t-148.5 100.5t-184 37q-96 0 -181 -37t-148.5 -100.5t-100.5 -148.5t-37 -181zM502 1741l92 90l303 -315l-92 -91z" />
<glyph unicode="&#xf3;" d="M102 598q0 123 47.5 231.5t128 189.5t189 128t231.5 47q125 0 233.5 -47t189.5 -128t128 -189.5t47 -231.5t-47 -232.5t-128 -190.5t-189.5 -128t-233.5 -47q-123 0 -231.5 47t-189 128t-128 190.5t-47.5 232.5zM231 598q0 -98 37 -183t100.5 -148.5t148.5 -100.5 t181 -37q98 0 183.5 37t149 100.5t100 148.5t36.5 183q0 96 -36.5 181t-100 148.5t-148.5 100.5t-184 37q-96 0 -181 -37t-148.5 -100.5t-100.5 -148.5t-37 -181zM502 1526l303 315l92 -90l-303 -315z" />
<glyph unicode="&#xf4;" d="M102 598q0 123 47.5 231.5t128 189.5t189 128t231.5 47q125 0 233.5 -47t189.5 -128t128 -189.5t47 -231.5t-47 -232.5t-128 -190.5t-189.5 -128t-233.5 -47q-123 0 -231.5 47t-189 128t-128 190.5t-47.5 232.5zM231 598q0 -98 37 -183t100.5 -148.5t148.5 -100.5 t181 -37q98 0 183.5 37t149 100.5t100 148.5t36.5 183q0 96 -36.5 181t-100 148.5t-148.5 100.5t-184 37q-96 0 -181 -37t-148.5 -100.5t-100.5 -148.5t-37 -181zM403 1524l295 309l295 -309l-94 -88l-201 211l-202 -211z" />
<glyph unicode="&#xf5;" d="M102 598q0 123 47.5 231.5t128 189.5t189 128t231.5 47q125 0 233.5 -47t189.5 -128t128 -189.5t47 -231.5t-47 -232.5t-128 -190.5t-189.5 -128t-233.5 -47q-123 0 -231.5 47t-189 128t-128 190.5t-47.5 232.5zM231 598q0 -98 37 -183t100.5 -148.5t148.5 -100.5 t181 -37q98 0 183.5 37t149 100.5t100 148.5t36.5 183q0 96 -36.5 181t-100 148.5t-148.5 100.5t-184 37q-96 0 -181 -37t-148.5 -100.5t-100.5 -148.5t-37 -181zM475 1556v9q0 55 36 102t95 47t96 -37t37 -98q0 -35 16.5 -48t35.5 -13q20 0 39.5 20.5t19.5 52.5v6h74v-6 q0 -27 -10.5 -53.5t-28 -47t-42 -33.5t-52.5 -13q-49 0 -87 34.5t-38 100.5q0 61 -60 61q-18 0 -37.5 -20.5t-19.5 -54.5v-9h-74z" />
<glyph unicode="&#xf6;" d="M102 598q0 123 47.5 231.5t128 189.5t189 128t231.5 47q125 0 233.5 -47t189.5 -128t128 -189.5t47 -231.5t-47 -232.5t-128 -190.5t-189.5 -128t-233.5 -47q-123 0 -231.5 47t-189 128t-128 190.5t-47.5 232.5zM231 598q0 -98 37 -183t100.5 -148.5t148.5 -100.5 t181 -37q98 0 183.5 37t149 100.5t100 148.5t36.5 183q0 96 -36.5 181t-100 148.5t-148.5 100.5t-184 37q-96 0 -181 -37t-148.5 -100.5t-100.5 -148.5t-37 -181zM440 1520q0 35 26 60.5t60 25.5q35 0 60.5 -26t25.5 -60q0 -37 -25.5 -62.5t-60.5 -25.5t-60.5 25.5 t-25.5 62.5zM786 1520q0 35 26 60.5t60 25.5q35 0 60.5 -26t25.5 -60q0 -37 -25.5 -62.5t-60.5 -25.5t-60.5 25.5t-25.5 62.5z" />
<glyph unicode="&#xf7;" horiz-adv-x="825" d="M102 537v129h621v-129h-621zM324 385q0 35 25.5 60.5t60.5 25.5t60.5 -25.5t25.5 -60.5t-26 -60.5t-60 -25.5q-35 0 -60.5 25.5t-25.5 60.5zM324 813q0 37 25.5 62.5t60.5 25.5t60.5 -25.5t25.5 -62.5q0 -35 -26 -60.5t-60 -25.5q-35 0 -60.5 25.5t-25.5 60.5z" />
<glyph unicode="&#xf8;" d="M102 598q0 123 47.5 231.5t128 189.5t189 128t231.5 47q16 0 33 -1t33 -3l67 303l125 -27l-67 -303q88 -31 163.5 -86t129 -129t84 -163t30.5 -187q0 -123 -47 -232.5t-128 -190.5t-189.5 -128t-233.5 -47q-16 0 -33.5 1t-33.5 3l-66 -299l-125 27l66 299q-88 31 -162 86 t-128 128.5t-84 164t-30 188.5zM231 598q0 -76 22.5 -145.5t62.5 -127t95.5 -100.5t123.5 -67l200 905q-10 2 -18 2h-19q-96 0 -181 -37t-148.5 -100.5t-100.5 -148.5t-37 -181zM659 131q10 -2 19.5 -2h19.5q98 0 183.5 37t149 100.5t100 148.5t36.5 183q0 76 -22.5 144.5 t-63.5 126t-97 100.5t-124 67z" />
<glyph unicode="&#xf9;" horiz-adv-x="1251" d="M102 526v680l129 -227v-453q0 -131 59.5 -218t146.5 -130t189.5 -43t189.5 44t145.5 131t58.5 218v678h129v-680q0 -113 -43 -208t-113.5 -164.5t-163 -109.5t-191.5 -44t-198.5 34t-183.5 122q-78 78 -116 175t-38 195zM428 1741l92 90l303 -315l-92 -91z" />
<glyph unicode="&#xfa;" horiz-adv-x="1251" d="M102 526v680l129 -227v-453q0 -131 59.5 -218t146.5 -130t189.5 -43t189.5 44t145.5 131t58.5 218v678h129v-680q0 -113 -43 -208t-113.5 -164.5t-163 -109.5t-191.5 -44t-198.5 34t-183.5 122q-78 78 -116 175t-38 195zM428 1526l303 315l92 -90l-303 -315z" />
<glyph unicode="&#xfb;" horiz-adv-x="1251" d="M102 526v680l129 -227v-453q0 -131 59.5 -218t146.5 -130t189.5 -43t189.5 44t145.5 131t58.5 218v678h129v-680q0 -113 -43 -208t-113.5 -164.5t-163 -109.5t-191.5 -44t-198.5 34t-183.5 122q-78 78 -116 175t-38 195zM330 1524l295 309l295 -309l-95 -88l-200 211 l-203 -211z" />
<glyph unicode="&#xfc;" horiz-adv-x="1251" d="M102 526v680l129 -227v-453q0 -131 59.5 -218t146.5 -130t189.5 -43t189.5 44t145.5 131t58.5 218v678h129v-680q0 -113 -43 -208t-113.5 -164.5t-163 -109.5t-191.5 -44t-198.5 34t-183.5 122q-78 78 -116 175t-38 195zM367 1520q0 35 25.5 60.5t60.5 25.5t60.5 -26 t25.5 -60q0 -37 -26 -62.5t-60 -25.5q-35 0 -60.5 25.5t-25.5 62.5zM713 1520q0 35 25.5 60.5t60.5 25.5t60.5 -26t25.5 -60q0 -37 -25.5 -62.5t-60.5 -25.5t-60.5 25.5t-25.5 62.5z" />
<glyph unicode="&#xfd;" horiz-adv-x="1402" d="M102 1204h162l453 -596l426 596h157l-518 -727v-477h-129v477zM504 1526l303 315l92 -90l-303 -315z" />
<glyph unicode="&#xfe;" horiz-adv-x="1071" d="M102 0v1206h129v-268h406q70 0 130 -27.5t105.5 -73.5t71 -107.5t25.5 -129.5q0 -70 -27 -130t-72 -105.5t-105 -71t-128 -25.5h-406v-41zM231 397h406q41 0 78 15.5t64.5 43t44 64.5t16.5 80t-16.5 81t-44 66.5t-64.5 45t-78 16.5h-406v-412z" />
<glyph unicode="&#xff;" horiz-adv-x="1402" d="M102 1204h162l453 -596l426 596h157l-518 -727v-477h-129v477zM442 1520q0 35 26 60.5t60 25.5q35 0 60.5 -26t25.5 -60q0 -37 -25.5 -62.5t-60.5 -25.5t-60.5 25.5t-25.5 62.5zM788 1520q0 35 26 60.5t60 25.5q35 0 61 -26t26 -60q0 -37 -26 -62.5t-61 -25.5t-60.5 25.5 t-25.5 62.5z" />
<glyph unicode="&#x152;" horiz-adv-x="2146" d="M102 598q0 123 47.5 231.5t128 189.5t189 128t231.5 47q127 0 238 -47l-74 -111q-80 29 -164 29q-96 0 -181 -37t-148.5 -100.5t-100.5 -148.5t-37 -181q0 -92 32 -173t89 -142l-73 -111q-82 82 -129.5 191.5t-47.5 234.5zM463 49l74 109q80 -29 161 -29q92 0 173 33 t143.5 89t102.5 134t48 168v90q-8 78 -38.5 146.5t-79.5 123.5l73 109q23 -25 45 -51v233h805l74 -129h-750v-428q0 -12 1 -24.5t1 -24.5t-1 -24.5t-1 -24.5v-420h676l74 -129h-879v223q-84 -104 -204.5 -163.5t-262.5 -59.5q-129 0 -235 49zM1475 664h495l74 -129h-496z " />
<glyph unicode="&#x153;" horiz-adv-x="2150" d="M102 598q0 123 47.5 231.5t128 189.5t189 128t231.5 47q145 0 266 -62.5t205 -166.5v239h805l74 -129h-750v-411h676l74 -129h-750v-406h676l74 -129h-879v229q-84 -104 -204.5 -166.5t-266.5 -62.5q-123 0 -231.5 47t-189 128t-128 190.5t-47.5 232.5zM231 598 q0 -98 37 -183t100.5 -148.5t148.5 -100.5t181 -37q98 0 183.5 37t149 100.5t100 148.5t36.5 183q0 96 -36.5 181t-100 148.5t-148.5 100.5t-184 37q-96 0 -181 -37t-148.5 -100.5t-100.5 -148.5t-37 -181z" />
<glyph unicode="&#x178;" horiz-adv-x="1402" d="M102 1204h162l238 -313h-162zM442 1520q0 35 26 60.5t60 25.5q35 0 60.5 -26t25.5 -60q0 -37 -25.5 -62.5t-60.5 -25.5t-60.5 25.5t-25.5 62.5zM653 0v518l490 686h157l-518 -727v-477h-129zM788 1520q0 35 26 60.5t60 25.5q35 0 61 -26t26 -60q0 -37 -26 -62.5 t-61 -25.5t-60.5 25.5t-25.5 62.5z" />
<glyph unicode="&#x2c6;" horiz-adv-x="794" d="M102 1114l295 309l295 -309l-94 -88l-201 211l-202 -211z" />
<glyph unicode="&#x2dc;" horiz-adv-x="653" d="M102 1147v8q0 55 36 102.5t95 47.5t96.5 -37t37.5 -99q0 -35 16 -48t35 -13q20 0 39.5 20.5t19.5 53.5v6h74v-6q0 -27 -10.5 -53.5t-27.5 -47t-42 -34t-53 -13.5q-49 0 -87 35t-38 100q0 61 -60 62q-18 0 -37.5 -20.5t-19.5 -55.5v-8h-74z" />
<glyph unicode="&#x2000;" horiz-adv-x="933" />
<glyph unicode="&#x2001;" horiz-adv-x="1866" />
<glyph unicode="&#x2002;" horiz-adv-x="933" />
<glyph unicode="&#x2003;" horiz-adv-x="1866" />
<glyph unicode="&#x2004;" horiz-adv-x="622" />
<glyph unicode="&#x2005;" horiz-adv-x="466" />
<glyph unicode="&#x2006;" horiz-adv-x="311" />
<glyph unicode="&#x2007;" horiz-adv-x="311" />
<glyph unicode="&#x2008;" horiz-adv-x="233" />
<glyph unicode="&#x2009;" horiz-adv-x="373" />
<glyph unicode="&#x200a;" horiz-adv-x="103" />
<glyph unicode="&#x2010;" horiz-adv-x="739" d="M102 535v129h535v-129h-535z" />
<glyph unicode="&#x2011;" horiz-adv-x="739" d="M102 535v129h535v-129h-535z" />
<glyph unicode="&#x2012;" horiz-adv-x="739" d="M102 535v129h535v-129h-535z" />
<glyph unicode="&#x2013;" horiz-adv-x="1705" />
<glyph unicode="&#x2014;" horiz-adv-x="1705" />
<glyph unicode="&#x2018;" horiz-adv-x="342" d="M102 1081q0 18 6.5 40t17.5 40.5t25.5 31.5t32.5 13q-27 -23 -22 -57h10q29 0 48.5 -19.5t19.5 -48.5t-19.5 -49t-48.5 -20t-49.5 20.5t-20.5 48.5z" />
<glyph unicode="&#x2019;" horiz-adv-x="342" d="M102 1137q0 29 19.5 49t48.5 20t49.5 -20.5t20.5 -48.5q0 -18 -6.5 -40t-17.5 -40.5t-25.5 -31.5t-32.5 -13q27 23 22 57h-10q-29 0 -48.5 19.5t-19.5 48.5z" />
<glyph unicode="&#x201a;" horiz-adv-x="342" d="M102 68q0 18 6.5 40.5t16.5 41t24.5 32t32.5 13.5q-14 -14 -18 -28.5t-4 -29.5h10q29 0 49.5 -20t20.5 -49t-20.5 -48.5t-49.5 -19.5t-48.5 19.5t-19.5 48.5z" />
<glyph unicode="&#x201c;" horiz-adv-x="581" d="M102 1081q0 18 6.5 40t17.5 40.5t25.5 31.5t32.5 13q-27 -23 -22 -57h10q29 0 48.5 -19.5t19.5 -48.5t-19.5 -49t-48.5 -20t-49.5 20.5t-20.5 48.5zM342 1081q0 18 6 40t17.5 40.5t26 31.5t32.5 13q-27 -23 -23 -57h11q29 0 48 -19.5t19 -48.5t-19.5 -49t-47.5 -20 q-29 0 -49.5 20.5t-20.5 48.5z" />
<glyph unicode="&#x201d;" horiz-adv-x="581" d="M102 1137q0 29 19.5 49t48.5 20t49.5 -20.5t20.5 -48.5q0 -18 -6.5 -40t-17.5 -40.5t-25.5 -31.5t-32.5 -13q27 23 22 57h-10q-29 0 -48.5 19.5t-19.5 48.5zM342 1137q0 29 19.5 49t48.5 20t49 -20.5t20 -48.5q0 -18 -6 -40t-17.5 -40.5t-25.5 -31.5t-33 -13q27 23 23 57 h-10q-29 0 -48.5 19.5t-19.5 48.5z" />
<glyph unicode="&#x201e;" horiz-adv-x="581" d="M102 68q0 18 6.5 40.5t16.5 41t24.5 32t32.5 13.5q-14 -14 -18 -28.5t-4 -29.5h10q29 0 49.5 -20t20.5 -49t-20.5 -48.5t-49.5 -19.5t-48.5 19.5t-19.5 48.5zM342 68q0 18 6 40.5t16.5 41t24.5 32t33 13.5q-14 -14 -18.5 -28.5t-4.5 -29.5h11q29 0 49 -20t20 -49 t-20.5 -48.5t-48.5 -19.5q-29 0 -48.5 19.5t-19.5 48.5z" />
<glyph unicode="&#x2022;" horiz-adv-x="342" d="M55 614q0 49 33 83t80 34q49 0 84 -33.5t35 -83.5q0 -47 -35 -80.5t-84 -33.5q-47 0 -80 33.5t-33 80.5z" />
<glyph unicode="&#x2026;" horiz-adv-x="821" d="M102 68q0 29 19.5 49t48.5 20t49.5 -20.5t20.5 -48.5q0 -29 -20.5 -48.5t-49.5 -19.5t-48.5 19.5t-19.5 48.5zM342 68q0 29 19.5 49t48.5 20t49 -20.5t20 -48.5q0 -29 -20.5 -48.5t-48.5 -19.5q-29 0 -48.5 19.5t-19.5 48.5zM582 68q0 29 19.5 49t47.5 20 q29 0 49.5 -20.5t20.5 -48.5q0 -29 -20.5 -48.5t-49.5 -19.5t-48 19.5t-19 48.5z" />
<glyph unicode="&#x202f;" horiz-adv-x="373" />
<glyph unicode="&#x2039;" horiz-adv-x="602" d="M102 600l308 295l90 -94l-211 -201l211 -203l-90 -92z" />
<glyph unicode="&#x203a;" horiz-adv-x="602" d="M102 397l211 203l-211 201l88 94l310 -295l-310 -295z" />
<glyph unicode="&#x205f;" horiz-adv-x="466" />
<glyph unicode="&#x20ac;" horiz-adv-x="1357" d="M102 387v129h150q-10 82 0 166h-150v129h185q23 57 54.5 108.5t78.5 96.5q86 86 194.5 130t222 44t223 -44t195.5 -130l-92 -90q-96 96 -203.5 123.5t-208 5t-185.5 -88t-136 -155.5h293v-129h-342q-18 -82 -4 -166h346v-129h-299q16 -29 37.5 -57.5t48.5 -57.5 q68 -68 153 -101.5t174 -33.5t174 34t152 101l92 -90q-86 -86 -195.5 -130t-223 -44t-222 44t-194.5 130q-47 45 -79 97.5t-54 107.5h-185z" />
<glyph unicode="&#x25fc;" horiz-adv-x="1208" d="M0 0v1208h1208v-1208h-1208z" />
<glyph unicode="&#xfb01;" horiz-adv-x="1705" />
</font>
</defs>
</svg>
